<svg width="50" height="47" viewBox="0 0 50 47" fill="none" xmlns="http://www.w3.org/2000/svg">
    <mask id="path-1-outside-1" maskUnits="userSpaceOnUse" x="0.174683" y="0" width="50" height="47" fill="black">
        <rect fill="white" x="0.174683" width="50" height="47" />
        <path fill-rule="evenodd" clip-rule="evenodd"
            d="M33.6047 14.1567L25 2L16.3953 14.1567L2.17468 18.5836L11.0773 30.5238L10.8932 45.4164L25 40.6392L39.1069 45.4164L38.9227 30.5238L47.8254 18.5836L33.6047 14.1567ZM22.6932 16.3877C22.6932 15.0874 23.697 14 25.0004 14C26.3037 14 27.3426 15.1426 27.3426 16.395C27.3426 17.7439 27.3163 18.7358 27.3163 18.7358H29.6336C29.6773 18.7358 29.7195 18.7407 29.7611 18.7476H30.4056V20.999H19.5951V18.7476H20.2396C20.2812 18.7407 20.3234 18.7358 20.3671 18.7358H22.6845C22.6845 18.7358 22.6932 17.6401 22.6932 16.3877ZM16.5043 38V16.2837H21.8876V17.8569H18.0614V36.4238H31.9408V17.8569H28.1132V16.2837H33.4964V38H16.5043ZM25.7723 17.082C25.7723 16.6566 25.4274 16.313 25.0004 16.313C24.5734 16.313 24.2284 16.6566 24.2284 17.082C24.2284 17.5082 24.5734 17.8525 25.0004 17.8525C25.4274 17.8525 25.7723 17.5082 25.7723 17.082ZM19.5951 23.2959V22.5254H20.3671V23.2959H19.5951ZM21.9125 23.3105V22.54H30.4056V23.3105H21.9125ZM19.5951 26.2021V25.4316H20.3671V26.2021H19.5951ZM21.9125 26.2183V25.4463H30.4056V26.2183H21.9125ZM19.5951 29.1084V28.3379H20.3671V29.1084H19.5951ZM21.9125 29.1245V28.354H30.4056V29.1245H21.9125ZM19.5951 32.0161V31.2456H20.3671V32.0161H19.5951ZM21.9125 32.0322V31.2617H30.4056V32.0322H21.9125ZM19.5951 34.9224V34.1519H20.3671V34.9224H19.5951ZM21.9125 34.9385V34.168H30.4056V34.9385H21.9125Z" />
    </mask>
    <path
        d="M25 2L25.8163 1.42226L25 0.269109L24.1838 1.42226L25 2ZM33.6047 14.1567L32.7885 14.7344L32.9842 15.0108L33.3075 15.1115L33.6047 14.1567ZM16.3953 14.1567L16.6926 15.1115L17.0159 15.0108L17.2116 14.7344L16.3953 14.1567ZM2.17468 18.5836L1.87745 17.6288L0.528508 18.0487L1.373 19.1813L2.17468 18.5836ZM11.0773 30.5238L12.0773 30.5361L12.0815 30.1975L11.879 29.926L11.0773 30.5238ZM10.8932 45.4164L9.89327 45.404L9.8758 46.8167L11.2139 46.3636L10.8932 45.4164ZM25 40.6392L25.3208 39.692L25 39.5834L24.6793 39.692L25 40.6392ZM39.1069 45.4164L38.7861 46.3636L40.1243 46.8167L40.1068 45.404L39.1069 45.4164ZM38.9227 30.5238L38.121 29.926L37.9186 30.1975L37.9228 30.5361L38.9227 30.5238ZM47.8254 18.5836L48.6271 19.1813L49.4716 18.0487L48.1226 17.6288L47.8254 18.5836ZM27.3163 18.7358L26.3166 18.7093L26.2893 19.7358H27.3163V18.7358ZM29.7611 18.7476L29.5975 19.7341L29.6787 19.7476H29.7611V18.7476ZM30.4056 18.7476H31.4056V17.7476H30.4056V18.7476ZM30.4056 20.999V21.999H31.4056V20.999H30.4056ZM19.5951 20.999H18.5951V21.999H19.5951V20.999ZM19.5951 18.7476V17.7476H18.5951V18.7476H19.5951ZM20.2396 18.7476V19.7476H20.322L20.4032 19.7341L20.2396 18.7476ZM22.6845 18.7358V19.7358H23.6765L23.6844 18.7439L22.6845 18.7358ZM16.5043 16.2837V15.2837H15.5043V16.2837H16.5043ZM16.5043 38H15.5043V39H16.5043V38ZM21.8876 16.2837H22.8876V15.2837H21.8876V16.2837ZM21.8876 17.8569V18.8569H22.8876V17.8569H21.8876ZM18.0614 17.8569V16.8569H17.0614V17.8569H18.0614ZM18.0614 36.4238H17.0614V37.4238H18.0614V36.4238ZM31.9408 36.4238V37.4238H32.9408V36.4238H31.9408ZM31.9408 17.8569H32.9408V16.8569H31.9408V17.8569ZM28.1132 17.8569H27.1132V18.8569H28.1132V17.8569ZM28.1132 16.2837V15.2837H27.1132V16.2837H28.1132ZM33.4964 16.2837H34.4964V15.2837H33.4964V16.2837ZM33.4964 38V39H34.4964V38H33.4964ZM19.5951 22.5254V21.5254H18.5951V22.5254H19.5951ZM19.5951 23.2959H18.5951V24.2959H19.5951V23.2959ZM20.3671 22.5254H21.3671V21.5254H20.3671V22.5254ZM20.3671 23.2959V24.2959H21.3671V23.2959H20.3671ZM21.9125 22.54V21.54H20.9125V22.54H21.9125ZM21.9125 23.3105H20.9125V24.3105H21.9125V23.3105ZM30.4056 22.54H31.4056V21.54H30.4056V22.54ZM30.4056 23.3105V24.3105H31.4056V23.3105H30.4056ZM19.5951 25.4316V24.4316H18.5951V25.4316H19.5951ZM19.5951 26.2021H18.5951V27.2021H19.5951V26.2021ZM20.3671 25.4316H21.3671V24.4316H20.3671V25.4316ZM20.3671 26.2021V27.2021H21.3671V26.2021H20.3671ZM21.9125 25.4463V24.4463H20.9125V25.4463H21.9125ZM21.9125 26.2183H20.9125V27.2183H21.9125V26.2183ZM30.4056 25.4463H31.4056V24.4463H30.4056V25.4463ZM30.4056 26.2183V27.2183H31.4056V26.2183H30.4056ZM19.5951 28.3379V27.3379H18.5951V28.3379H19.5951ZM19.5951 29.1084H18.5951V30.1084H19.5951V29.1084ZM20.3671 28.3379H21.3671V27.3379H20.3671V28.3379ZM20.3671 29.1084V30.1084H21.3671V29.1084H20.3671ZM21.9125 28.354V27.354H20.9125V28.354H21.9125ZM21.9125 29.1245H20.9125V30.1245H21.9125V29.1245ZM30.4056 28.354H31.4056V27.354H30.4056V28.354ZM30.4056 29.1245V30.1245H31.4056V29.1245H30.4056ZM19.5951 31.2456V30.2456H18.5951V31.2456H19.5951ZM19.5951 32.0161H18.5951V33.0161H19.5951V32.0161ZM20.3671 31.2456H21.3671V30.2456H20.3671V31.2456ZM20.3671 32.0161V33.0161H21.3671V32.0161H20.3671ZM21.9125 31.2617V30.2617H20.9125V31.2617H21.9125ZM21.9125 32.0322H20.9125V33.0322H21.9125V32.0322ZM30.4056 31.2617H31.4056V30.2617H30.4056V31.2617ZM30.4056 32.0322V33.0322H31.4056V32.0322H30.4056ZM19.5951 34.1519V33.1519H18.5951V34.1519H19.5951ZM19.5951 34.9224H18.5951V35.9224H19.5951V34.9224ZM20.3671 34.1519H21.3671V33.1519H20.3671V34.1519ZM20.3671 34.9224V35.9224H21.3671V34.9224H20.3671ZM21.9125 34.168V33.168H20.9125V34.168H21.9125ZM21.9125 34.9385H20.9125V35.9385H21.9125V34.9385ZM30.4056 34.168H31.4056V33.168H30.4056V34.168ZM30.4056 34.9385V35.9385H31.4056V34.9385H30.4056ZM24.1838 2.57774L32.7885 14.7344L34.421 13.5789L25.8163 1.42226L24.1838 2.57774ZM17.2116 14.7344L25.8163 2.57774L24.1838 1.42226L15.5791 13.5789L17.2116 14.7344ZM2.47192 19.5384L16.6926 15.1115L16.0981 13.2018L1.87745 17.6288L2.47192 19.5384ZM11.879 29.926L2.97637 17.9858L1.373 19.1813L10.2757 31.1215L11.879 29.926ZM11.8931 45.4288L12.0773 30.5361L10.0774 30.5114L9.89327 45.404L11.8931 45.4288ZM24.6793 39.692L10.5724 44.4692L11.2139 46.3636L25.3208 41.5863L24.6793 39.692ZM39.4276 44.4692L25.3208 39.692L24.6793 41.5863L38.7861 46.3636L39.4276 44.4692ZM37.9228 30.5361L38.107 45.4288L40.1068 45.404L39.9227 30.5114L37.9228 30.5361ZM47.0237 17.9858L38.121 29.926L39.7244 31.1215L48.6271 19.1813L47.0237 17.9858ZM33.3075 15.1115L47.5282 19.5384L48.1226 17.6288L33.902 13.2018L33.3075 15.1115ZM25.0004 13C23.0996 13 21.6932 14.5813 21.6932 16.3877H23.6932C23.6932 15.5935 24.2944 15 25.0004 15V13ZM28.3426 16.395C28.3426 14.6334 26.8981 13 25.0004 13V15C25.7093 15 26.3426 15.6518 26.3426 16.395H28.3426ZM27.3163 18.7358C28.3159 18.7624 28.3159 18.7624 28.3159 18.7624C28.3159 18.7623 28.3159 18.7623 28.3159 18.7623C28.3159 18.7622 28.3159 18.7622 28.3159 18.7621C28.3159 18.7619 28.3159 18.7617 28.3159 18.7614C28.316 18.7608 28.316 18.76 28.316 18.7589C28.3161 18.7568 28.3161 18.7538 28.3162 18.7498C28.3165 18.7418 28.3167 18.7301 28.3171 18.7148C28.3179 18.6842 28.3189 18.6394 28.3202 18.5814C28.3227 18.4656 28.326 18.2975 28.3293 18.0871C28.336 17.6664 28.3426 17.0758 28.3426 16.395H26.3426C26.3426 17.0631 26.3361 17.643 26.3296 18.0555C26.3263 18.2616 26.3231 18.4258 26.3206 18.5381C26.3194 18.5943 26.3184 18.6374 26.3177 18.6664C26.3174 18.6808 26.3171 18.6918 26.3169 18.699C26.3168 18.7026 26.3167 18.7052 26.3167 18.707C26.3167 18.7078 26.3166 18.7084 26.3166 18.7088C26.3166 18.709 26.3166 18.7092 26.3166 18.7092C26.3166 18.7093 26.3166 18.7093 26.3166 18.7093C26.3166 18.7093 26.3166 18.7093 26.3166 18.7093C26.3166 18.7093 26.3166 18.7093 27.3163 18.7358ZM29.6336 17.7358H27.3163V19.7358H29.6336V17.7358ZM29.9246 17.761C29.8506 17.7488 29.7503 17.7358 29.6336 17.7358V19.7358C29.6042 19.7358 29.5883 19.7326 29.5975 19.7341L29.9246 17.761ZM30.4056 17.7476H29.7611V19.7476H30.4056V17.7476ZM31.4056 20.999V18.7476H29.4056V20.999H31.4056ZM19.5951 21.999H30.4056V19.999H19.5951V21.999ZM18.5951 18.7476V20.999H20.5951V18.7476H18.5951ZM20.2396 17.7476H19.5951V19.7476H20.2396V17.7476ZM20.3671 17.7358C20.2504 17.7358 20.1501 17.7488 20.076 17.761L20.4032 19.7341C20.4124 19.7326 20.3965 19.7358 20.3671 19.7358V17.7358ZM22.6845 17.7358H20.3671V19.7358H22.6845V17.7358ZM21.6932 16.3877C21.6932 17.0117 21.691 17.5969 21.6889 18.0263C21.6878 18.2409 21.6867 18.4165 21.6859 18.5383C21.6854 18.5992 21.6851 18.6467 21.6849 18.6789C21.6847 18.695 21.6846 18.7073 21.6846 18.7155C21.6846 18.7196 21.6845 18.7227 21.6845 18.7248C21.6845 18.7258 21.6845 18.7266 21.6845 18.7271C21.6845 18.7274 21.6845 18.7275 21.6845 18.7277C21.6845 18.7277 21.6845 18.7278 21.6845 18.7278C21.6845 18.7278 21.6845 18.7278 21.6845 18.7278C21.6845 18.7278 21.6845 18.7278 22.6845 18.7358C23.6844 18.7439 23.6844 18.7438 23.6844 18.7438C23.6844 18.7438 23.6844 18.7438 23.6844 18.7438C23.6844 18.7437 23.6844 18.7437 23.6844 18.7436C23.6844 18.7435 23.6844 18.7433 23.6844 18.743C23.6844 18.7424 23.6844 18.7416 23.6845 18.7405C23.6845 18.7384 23.6845 18.7352 23.6845 18.7309C23.6846 18.7225 23.6847 18.71 23.6848 18.6937C23.685 18.6611 23.6854 18.6132 23.6858 18.5518C23.6866 18.429 23.6877 18.2524 23.6888 18.0365C23.691 17.6049 23.6932 17.0161 23.6932 16.3877H21.6932ZM15.5043 16.2837V38H17.5043V16.2837H15.5043ZM21.8876 15.2837H16.5043V17.2837H21.8876V15.2837ZM22.8876 17.8569V16.2837H20.8876V17.8569H22.8876ZM18.0614 18.8569H21.8876V16.8569H18.0614V18.8569ZM19.0614 36.4238V17.8569H17.0614V36.4238H19.0614ZM31.9408 35.4238H18.0614V37.4238H31.9408V35.4238ZM30.9408 17.8569V36.4238H32.9408V17.8569H30.9408ZM28.1132 18.8569H31.9408V16.8569H28.1132V18.8569ZM27.1132 16.2837V17.8569H29.1132V16.2837H27.1132ZM33.4964 15.2837H28.1132V17.2837H33.4964V15.2837ZM34.4964 38V16.2837H32.4964V38H34.4964ZM16.5043 39H33.4964V37H16.5043V39ZM25.0004 17.313C24.8787 17.313 24.7723 17.2125 24.7723 17.082H26.7723C26.7723 16.1006 25.976 15.313 25.0004 15.313V17.313ZM25.2284 17.082C25.2284 17.2125 25.122 17.313 25.0004 17.313V15.313C24.0247 15.313 23.2284 16.1007 23.2284 17.082H25.2284ZM25.0004 16.8525C25.1238 16.8525 25.2284 16.9541 25.2284 17.082H23.2284C23.2284 18.0623 24.0229 18.8525 25.0004 18.8525V16.8525ZM24.7723 17.082C24.7723 16.9541 24.8769 16.8525 25.0004 16.8525V18.8525C25.9778 18.8525 26.7723 18.0624 26.7723 17.082H24.7723ZM18.5951 22.5254V23.2959H20.5951V22.5254H18.5951ZM20.3671 21.5254H19.5951V23.5254H20.3671V21.5254ZM21.3671 23.2959V22.5254H19.3671V23.2959H21.3671ZM19.5951 24.2959H20.3671V22.2959H19.5951V24.2959ZM20.9125 22.54V23.3105H22.9125V22.54H20.9125ZM30.4056 21.54H21.9125V23.54H30.4056V21.54ZM31.4056 23.3105V22.54H29.4056V23.3105H31.4056ZM21.9125 24.3105H30.4056V22.3105H21.9125V24.3105ZM18.5951 25.4316V26.2021H20.5951V25.4316H18.5951ZM20.3671 24.4316H19.5951V26.4316H20.3671V24.4316ZM21.3671 26.2021V25.4316H19.3671V26.2021H21.3671ZM19.5951 27.2021H20.3671V25.2021H19.5951V27.2021ZM20.9125 25.4463V26.2183H22.9125V25.4463H20.9125ZM30.4056 24.4463H21.9125V26.4463H30.4056V24.4463ZM31.4056 26.2183V25.4463H29.4056V26.2183H31.4056ZM21.9125 27.2183H30.4056V25.2183H21.9125V27.2183ZM18.5951 28.3379V29.1084H20.5951V28.3379H18.5951ZM20.3671 27.3379H19.5951V29.3379H20.3671V27.3379ZM21.3671 29.1084V28.3379H19.3671V29.1084H21.3671ZM19.5951 30.1084H20.3671V28.1084H19.5951V30.1084ZM20.9125 28.354V29.1245H22.9125V28.354H20.9125ZM30.4056 27.354H21.9125V29.354H30.4056V27.354ZM31.4056 29.1245V28.354H29.4056V29.1245H31.4056ZM21.9125 30.1245H30.4056V28.1245H21.9125V30.1245ZM18.5951 31.2456V32.0161H20.5951V31.2456H18.5951ZM20.3671 30.2456H19.5951V32.2456H20.3671V30.2456ZM21.3671 32.0161V31.2456H19.3671V32.0161H21.3671ZM19.5951 33.0161H20.3671V31.0161H19.5951V33.0161ZM20.9125 31.2617V32.0322H22.9125V31.2617H20.9125ZM30.4056 30.2617H21.9125V32.2617H30.4056V30.2617ZM31.4056 32.0322V31.2617H29.4056V32.0322H31.4056ZM21.9125 33.0322H30.4056V31.0322H21.9125V33.0322ZM18.5951 34.1519V34.9224H20.5951V34.1519H18.5951ZM20.3671 33.1519H19.5951V35.1519H20.3671V33.1519ZM21.3671 34.9224V34.1519H19.3671V34.9224H21.3671ZM19.5951 35.9224H20.3671V33.9224H19.5951V35.9224ZM20.9125 34.168V34.9385H22.9125V34.168H20.9125ZM30.4056 33.168H21.9125V35.168H30.4056V33.168ZM31.4056 34.9385V34.168H29.4056V34.9385H31.4056ZM21.9125 35.9385H30.4056V33.9385H21.9125V35.9385Z"
        fill="white" mask="url(#path-1-outside-1)" />
</svg>