<svg width="50" height="47" viewBox="0 0 50 47" fill="none" xmlns="http://www.w3.org/2000/svg">
    <mask id="path-1-outside-1" maskUnits="userSpaceOnUse" x="0.174683" y="0" width="50" height="47" fill="black">
        <rect fill="white" x="0.174683" width="50" height="47"></rect>
        <path fill-rule="evenodd" clip-rule="evenodd"
            d="M33.6047 14.1567L25 2L16.3953 14.1567L2.17468 18.5836L11.0773 30.5238L10.8932 45.4164L25 40.6392L39.1069 45.4164L38.9227 30.5238L47.8254 18.5836L33.6047 14.1567ZM15 33V19H35V33H15ZM19.1214 28.8787C19.684 29.4413 20 30.2044 20 31H30C30 30.2044 30.3161 29.4413 30.8787 28.8787C31.4413 28.3161 32.2044 28 33 28V24C32.2044 24 31.4413 23.6839 30.8787 23.1213C30.3161 22.5587 30 21.7956 30 21H20C20 21.7956 19.684 22.5587 19.1214 23.1213C18.5588 23.6839 17.7957 24 17 24V28C17.7957 28 18.5588 28.3161 19.1214 28.8787ZM27 26C27 24.3 26.1 23 25 23C23.9 23 23 24.3 23 26C23 27.7 23.9 29 25 29C26.1 29 27 27.7 27 26Z">
        </path>
    </mask>
    <path
        d="M25 2L25.8163 1.42226L25 0.269109L24.1838 1.42226L25 2ZM33.6047 14.1567L32.7885 14.7344L32.9842 15.0108L33.3075 15.1115L33.6047 14.1567ZM16.3953 14.1567L16.6926 15.1115L17.0159 15.0108L17.2116 14.7344L16.3953 14.1567ZM2.17468 18.5836L1.87745 17.6288L0.528508 18.0487L1.373 19.1813L2.17468 18.5836ZM11.0773 30.5238L12.0773 30.5361L12.0815 30.1975L11.879 29.926L11.0773 30.5238ZM10.8932 45.4164L9.89327 45.404L9.8758 46.8167L11.2139 46.3636L10.8932 45.4164ZM25 40.6392L25.3208 39.692L25 39.5834L24.6793 39.692L25 40.6392ZM39.1069 45.4164L38.7861 46.3636L40.1243 46.8167L40.1068 45.404L39.1069 45.4164ZM38.9227 30.5238L38.121 29.926L37.9186 30.1975L37.9228 30.5361L38.9227 30.5238ZM47.8254 18.5836L48.6271 19.1813L49.4716 18.0487L48.1226 17.6288L47.8254 18.5836ZM15 19V18H14V19H15ZM15 33H14V34H15V33ZM35 19H36V18H35V19ZM35 33V34H36V33H35ZM20 31H19V32H20V31ZM30 31V32H31V31H30ZM33 28V29H34V28H33ZM33 24H34V23H33V24ZM30 21H31V20H30V21ZM20 21V20H19V21H20ZM17 24V23H16V24H17ZM17 28H16V29H17V28ZM24.1838 2.57774L32.7885 14.7344L34.421 13.5789L25.8163 1.42226L24.1838 2.57774ZM17.2116 14.7344L25.8163 2.57774L24.1838 1.42226L15.5791 13.5789L17.2116 14.7344ZM2.47192 19.5384L16.6926 15.1115L16.0981 13.2018L1.87745 17.6288L2.47192 19.5384ZM11.879 29.926L2.97637 17.9858L1.373 19.1813L10.2757 31.1215L11.879 29.926ZM11.8931 45.4288L12.0773 30.5361L10.0774 30.5114L9.89327 45.404L11.8931 45.4288ZM24.6793 39.692L10.5724 44.4692L11.2139 46.3636L25.3208 41.5863L24.6793 39.692ZM39.4276 44.4692L25.3208 39.692L24.6793 41.5863L38.7861 46.3636L39.4276 44.4692ZM37.9228 30.5361L38.107 45.4288L40.1068 45.404L39.9227 30.5114L37.9228 30.5361ZM47.0237 17.9858L38.121 29.926L39.7244 31.1215L48.6271 19.1813L47.0237 17.9858ZM33.3075 15.1115L47.5282 19.5384L48.1226 17.6288L33.902 13.2018L33.3075 15.1115ZM14 19V33H16V19H14ZM35 18H15V20H35V18ZM36 33V19H34V33H36ZM15 34H35V32H15V34ZM21 31C21 29.9391 20.5786 28.9217 19.8285 28.1716L18.4143 29.5858C18.7893 29.9609 19 30.4696 19 31H21ZM30 30H20V32H30V30ZM30.1716 28.1716C29.4215 28.9217 29 29.9391 29 31H31C31 30.4696 31.2108 29.9609 31.5858 29.5858L30.1716 28.1716ZM33 27C31.9392 27 30.9218 27.4214 30.1716 28.1716L31.5858 29.5858C31.9609 29.2107 32.4696 29 33 29V27ZM32 24V28H34V24H32ZM30.1716 23.8284C30.9218 24.5786 31.9392 25 33 25V23C32.4696 23 31.9609 22.7893 31.5858 22.4142L30.1716 23.8284ZM29 21C29 22.0609 29.4215 23.0783 30.1716 23.8284L31.5858 22.4142C31.2108 22.0391 31 21.5304 31 21H29ZM20 22H30V20H20V22ZM19.8285 23.8284C20.5786 23.0783 21 22.0609 21 21H19C19 21.5304 18.7893 22.0391 18.4143 22.4142L19.8285 23.8284ZM17 25C18.0609 25 19.0783 24.5786 19.8285 23.8284L18.4143 22.4142C18.0392 22.7893 17.5305 23 17 23V25ZM18 28V24H16V28H18ZM19.8285 28.1716C19.0783 27.4214 18.0609 27 17 27V29C17.5305 29 18.0392 29.2107 18.4143 29.5858L19.8285 28.1716ZM25 24C25.1229 24 25.3468 24.0708 25.5835 24.4216C25.8178 24.769 26 25.3169 26 26H28C28 24.9831 27.7323 24.031 27.2416 23.3034C26.7532 22.5792 25.9771 22 25 22V24ZM24 26C24 25.3169 24.1823 24.769 24.4166 24.4216C24.6532 24.0708 24.8771 24 25 24V22C24.0229 22 23.2468 22.5792 22.7585 23.3034C22.2677 24.031 22 24.9831 22 26H24ZM25 28C24.8771 28 24.6532 27.9292 24.4166 27.5784C24.1823 27.231 24 26.6831 24 26H22C22 27.0169 22.2677 27.969 22.7585 28.6966C23.2468 29.4208 24.0229 30 25 30V28ZM26 26C26 26.6831 25.8178 27.231 25.5835 27.5784C25.3468 27.9292 25.1229 28 25 28V30C25.9771 30 26.7532 29.4208 27.2416 28.6966C27.7323 27.969 28 27.0169 28 26H26Z"
        fill="white" mask="url(#path-1-outside-1)"></path>
</svg>