<svg width="50" height="47" viewBox="0 0 50 47" fill="none" xmlns="http://www.w3.org/2000/svg">
    <mask id="path-1-outside-1" maskUnits="userSpaceOnUse" x="0.174683" y="0" width="50" height="47" fill="black">
        <rect fill="white" x="0.174683" width="50" height="47"></rect>
        <path fill-rule="evenodd" clip-rule="evenodd"
            d="M33.6047 14.1567L25 2L16.3953 14.1567L2.17468 18.5836L11.0773 30.5238L10.8932 45.4164L25 40.6392L39.1069 45.4164L38.9227 30.5238L47.8254 18.5836L33.6047 14.1567ZM21.2075 15.4059C20.3074 16.3061 19.8016 17.527 19.8016 18.8C19.8016 20.073 20.3074 21.2939 21.2075 22.1941C22.1077 23.0943 23.3286 23.6 24.6016 23.6L22.2016 26L24.0624 35.3056L19.0848 25.2H18.1984C15 25.2 15 27.3504 15 30V38H34.2V30C34.2 27.3504 34.2 25.2 31.0016 25.2H30.1184L25.1408 35.3056L27.0016 26L24.6016 23.6C25.8747 23.6 27.0956 23.0943 27.9958 22.1941C28.8959 21.2939 29.4016 20.073 29.4016 18.8C29.4016 17.527 28.8959 16.3061 27.9958 15.4059C27.0956 14.5057 25.8747 14 24.6016 14C23.3286 14 22.1077 14.5057 21.2075 15.4059Z">
        </path>
    </mask>
    <path
        d="M25 2L25.8163 1.42226L25 0.269109L24.1838 1.42226L25 2ZM33.6047 14.1567L32.7885 14.7344L32.9842 15.0108L33.3075 15.1115L33.6047 14.1567ZM16.3953 14.1567L16.6926 15.1115L17.0159 15.0108L17.2116 14.7344L16.3953 14.1567ZM2.17468 18.5836L1.87745 17.6288L0.528508 18.0487L1.373 19.1813L2.17468 18.5836ZM11.0773 30.5238L12.0773 30.5361L12.0815 30.1975L11.879 29.926L11.0773 30.5238ZM10.8932 45.4164L9.89327 45.404L9.8758 46.8167L11.2139 46.3636L10.8932 45.4164ZM25 40.6392L25.3208 39.692L25 39.5834L24.6793 39.692L25 40.6392ZM39.1069 45.4164L38.7861 46.3636L40.1243 46.8167L40.1068 45.404L39.1069 45.4164ZM38.9227 30.5238L38.121 29.926L37.9186 30.1975L37.9228 30.5361L38.9227 30.5238ZM47.8254 18.5836L48.6271 19.1813L49.4716 18.0487L48.1226 17.6288L47.8254 18.5836ZM21.2075 15.4059L21.9146 16.113L21.9146 16.113L21.2075 15.4059ZM22.2016 26L21.4945 25.2929L21.1161 25.6713L21.2211 26.1961L22.2016 26ZM24.0624 35.3056L23.1654 35.7475L25.043 35.1095L24.0624 35.3056ZM19.0848 25.2L19.9819 24.7581L19.707 24.2H19.0848V25.2ZM15 38H14V39H15V38ZM34.2 38V39H35.2V38H34.2ZM30.1184 25.2V24.2H29.4963L29.2214 24.7581L30.1184 25.2ZM25.1408 35.3056L24.1603 35.1095L26.0379 35.7475L25.1408 35.3056ZM27.0016 26L27.9822 26.1961L28.0872 25.6713L27.7087 25.2929L27.0016 26ZM27.9958 15.4059L27.2886 16.113L27.2886 16.113L27.9958 15.4059ZM24.1838 2.57774L32.7885 14.7344L34.421 13.5789L25.8163 1.42226L24.1838 2.57774ZM17.2116 14.7344L25.8163 2.57774L24.1838 1.42226L15.5791 13.5789L17.2116 14.7344ZM2.47192 19.5384L16.6926 15.1115L16.0981 13.2018L1.87745 17.6288L2.47192 19.5384ZM11.879 29.926L2.97637 17.9858L1.373 19.1813L10.2757 31.1215L11.879 29.926ZM11.8931 45.4288L12.0773 30.5361L10.0774 30.5114L9.89327 45.404L11.8931 45.4288ZM24.6793 39.692L10.5724 44.4692L11.2139 46.3636L25.3208 41.5863L24.6793 39.692ZM39.4276 44.4692L25.3208 39.692L24.6793 41.5863L38.7861 46.3636L39.4276 44.4692ZM37.9228 30.5361L38.107 45.4288L40.1068 45.404L39.9227 30.5114L37.9228 30.5361ZM47.0237 17.9858L38.121 29.926L39.7244 31.1215L48.6271 19.1813L47.0237 17.9858ZM33.3075 15.1115L47.5282 19.5384L48.1226 17.6288L33.902 13.2018L33.3075 15.1115ZM20.8016 18.8C20.8016 17.7922 21.202 16.8256 21.9146 16.113L20.5004 14.6988C19.4127 15.7865 18.8016 17.2617 18.8016 18.8H20.8016ZM21.9146 21.487C21.202 20.7744 20.8016 19.8078 20.8016 18.8H18.8016C18.8016 20.3383 19.4127 21.8135 20.5004 22.9012L21.9146 21.487ZM24.6016 22.6C23.5938 22.6 22.6273 22.1996 21.9146 21.487L20.5004 22.9012C21.5881 23.9889 23.0634 24.6 24.6016 24.6V22.6ZM23.8945 22.8929L21.4945 25.2929L22.9087 26.7071L25.3087 24.3071L23.8945 22.8929ZM21.2211 26.1961L23.0819 35.5017L25.043 35.1095L23.1822 25.8039L21.2211 26.1961ZM24.9595 34.8637L19.9819 24.7581L18.1878 25.6419L23.1654 35.7475L24.9595 34.8637ZM19.0848 24.2H18.1984V26.2H19.0848V24.2ZM18.1984 24.2C17.2948 24.2 16.516 24.3507 15.874 24.6976C15.2122 25.0551 14.7711 25.5806 14.4914 26.1884C14.2224 26.773 14.1082 27.4207 14.0538 28.0455C13.9993 28.6713 14 29.3483 14 30H16C16 29.3269 16.0008 28.7415 16.0462 28.2189C16.0918 27.6953 16.1775 27.3086 16.3083 27.0244C16.4284 26.7634 16.5869 26.5857 16.8247 26.4572C17.0822 26.3181 17.5028 26.2 18.1984 26.2V24.2ZM14 30V38H16V30H14ZM15 39H34.2V37H15V39ZM35.2 38V30H33.2V38H35.2ZM35.2 30C35.2 29.3483 35.2008 28.6713 35.1463 28.0455C35.0919 27.4207 34.9777 26.773 34.7087 26.1884C34.429 25.5806 33.9878 25.0551 33.326 24.6976C32.684 24.3507 31.9052 24.2 31.0016 24.2V26.2C31.6972 26.2 32.1178 26.3181 32.3754 26.4572C32.6131 26.5857 32.7717 26.7634 32.8918 27.0244C33.0226 27.3086 33.1083 27.6953 33.1538 28.2189C33.1993 28.7415 33.2 29.3269 33.2 30H35.2ZM31.0016 24.2H30.1184V26.2H31.0016V24.2ZM29.2214 24.7581L24.2438 34.8637L26.0379 35.7475L31.0155 25.6419L29.2214 24.7581ZM26.1214 35.5017L27.9822 26.1961L26.0211 25.8039L24.1603 35.1095L26.1214 35.5017ZM27.7087 25.2929L25.3087 22.8929L23.8945 24.3071L26.2945 26.7071L27.7087 25.2929ZM27.2886 21.487C26.576 22.1996 25.6095 22.6 24.6016 22.6V24.6C26.1399 24.6 27.6151 23.9889 28.7029 22.9012L27.2886 21.487ZM28.4016 18.8C28.4016 19.8078 28.0013 20.7744 27.2886 21.487L28.7029 22.9012C29.7906 21.8135 30.4016 20.3383 30.4016 18.8H28.4016ZM27.2886 16.113C28.0013 16.8256 28.4016 17.7922 28.4016 18.8H30.4016C30.4016 17.2617 29.7906 15.7865 28.7029 14.6988L27.2886 16.113ZM24.6016 15C25.6095 15 26.576 15.4004 27.2886 16.113L28.7029 14.6988C27.6151 13.6111 26.1399 13 24.6016 13V15ZM21.9146 16.113C22.6273 15.4004 23.5938 15 24.6016 15V13C23.0634 13 21.5881 13.6111 20.5004 14.6988L21.9146 16.113Z"
        fill="white" mask="url(#path-1-outside-1)"></path>
</svg>