<svg width="50" height="47" viewBox="0 0 50 47" fill="none" xmlns="http://www.w3.org/2000/svg">
    <mask id="path-1-outside-1" maskUnits="userSpaceOnUse" x="0.174683" y="0" width="50" height="47" fill="black">
        <rect fill="white" x="0.174683" width="50" height="47"></rect>
        <path fill-rule="evenodd" clip-rule="evenodd"
            d="M33.6047 14.1567L25 2L16.3953 14.1567L2.17468 18.5836L11.0773 30.5238L10.8932 45.4164L25 40.6392L39.1069 45.4164L38.9227 30.5238L47.8254 18.5836L33.6047 14.1567ZM32.404 20.051L33.772 24.156C34.492 24.459 35 25.171 35 26V31C34.9988 31.357 34.9017 31.707 34.719 32.0136C34.5362 32.3202 34.2744 32.5721 33.961 32.743C33.9654 32.7647 33.9711 32.7859 33.9769 32.8071C33.9885 32.8496 34 32.892 34 32.938V35C34 35.2652 33.8947 35.5196 33.7071 35.7071C33.5196 35.8946 33.2653 36 33 36H32C31.7348 36 31.4805 35.8946 31.2929 35.7071C31.1054 35.5196 31 35.2652 31 35V33H19V35C19 35.2652 18.8947 35.5196 18.7071 35.7071C18.5196 35.8946 18.2653 36 18 36H17C16.7348 36 16.4805 35.8946 16.2929 35.7071C16.1054 35.5196 16 35.2652 16 35V32.938C16 32.8924 16.0114 32.8508 16.0228 32.8088C16.0287 32.7871 16.0346 32.7654 16.039 32.743C15.423 32.402 15 31.753 15 31V26C15.0006 25.6059 15.1175 25.2208 15.3359 24.8928C15.5543 24.5648 15.8647 24.3085 16.228 24.156L17.596 20.051C17.7945 19.4535 18.1762 18.9337 18.6869 18.5655C19.1977 18.1973 19.8114 17.9994 20.441 18H23V16H27V18H29.559C30.1886 17.9994 30.8024 18.1973 31.3132 18.5655C31.8239 18.9337 32.2056 19.4535 32.404 20.051ZM17 26V31H33.002L33 26H17ZM29.558 20H20.441C20.2311 19.9999 20.0264 20.066 19.8561 20.1888C19.6858 20.3115 19.5584 20.4848 19.492 20.684L18.387 24H31.613L30.507 20.684C30.371 20.274 29.989 20 29.558 20ZM19.5 30C20.3285 30 21 29.3284 21 28.5C21 27.6716 20.3285 27 19.5 27C18.6716 27 18 27.6716 18 28.5C18 29.3284 18.6716 30 19.5 30ZM32 28.5C32 29.3284 31.3285 30 30.5 30C29.6716 30 29 29.3284 29 28.5C29 27.6716 29.6716 27 30.5 27C31.3285 27 32 27.6716 32 28.5Z">
        </path>
    </mask>
    <path
        d="M25 2L25.8163 1.42226L25 0.269109L24.1838 1.42226L25 2ZM33.6047 14.1567L32.7885 14.7344L32.9842 15.0108L33.3075 15.1115L33.6047 14.1567ZM16.3953 14.1567L16.6926 15.1115L17.0159 15.0108L17.2116 14.7344L16.3953 14.1567ZM2.17468 18.5836L1.87745 17.6288L0.528508 18.0487L1.373 19.1813L2.17468 18.5836ZM11.0773 30.5238L12.0773 30.5361L12.0815 30.1975L11.879 29.926L11.0773 30.5238ZM10.8932 45.4164L9.89327 45.404L9.8758 46.8167L11.2139 46.3636L10.8932 45.4164ZM25 40.6392L25.3208 39.692L25 39.5834L24.6793 39.692L25 40.6392ZM39.1069 45.4164L38.7861 46.3636L40.1243 46.8167L40.1068 45.404L39.1069 45.4164ZM38.9227 30.5238L38.121 29.926L37.9186 30.1975L37.9228 30.5361L38.9227 30.5238ZM47.8254 18.5836L48.6271 19.1813L49.4716 18.0487L48.1226 17.6288L47.8254 18.5836ZM33.772 24.156L32.8233 24.4722L32.9666 24.902L33.3842 25.0777L33.772 24.156ZM32.404 20.051L31.455 20.3662L31.4553 20.3672L32.404 20.051ZM35 31L36 31.0034V31H35ZM34.719 32.0136L33.86 31.5016L33.86 31.5016L34.719 32.0136ZM33.961 32.743L33.4824 31.865L32.8361 32.2173L32.9805 32.9391L33.961 32.743ZM33.9769 32.8071L33.012 33.0698L33.0121 33.0698L33.9769 32.8071ZM31 33H32V32H31V33ZM19 33V32H18V33H19ZM18.7071 35.7071L19.4143 36.4142L19.4143 36.4142L18.7071 35.7071ZM16.0228 32.8088L15.058 32.546L15.0579 32.5461L16.0228 32.8088ZM16.039 32.743L17.0202 32.9363L17.161 32.2211L16.5234 31.8681L16.039 32.743ZM15 26L14 25.9985V26H15ZM15.3359 24.8928L16.1682 25.4471L16.1682 25.447L15.3359 24.8928ZM16.228 24.156L16.615 25.0781L17.0333 24.9026L17.1767 24.4722L16.228 24.156ZM17.596 20.051L18.5447 20.3672L18.5451 20.3662L17.596 20.051ZM18.6869 18.5655L18.1021 17.7543L18.1021 17.7543L18.6869 18.5655ZM20.441 18L20.4401 19H20.441V18ZM23 18V19H24V18H23ZM23 16V15H22V16H23ZM27 16H28V15H27V16ZM27 18H26V19H27V18ZM29.559 18V19H29.5599L29.559 18ZM31.3132 18.5655L31.8979 17.7543L31.8979 17.7543L31.3132 18.5655ZM17 31H16V32H17V31ZM17 26V25H16V26H17ZM33.002 31V32H34.0024L34.002 30.9996L33.002 31ZM33 26L34 25.9996L33.9996 25H33V26ZM20.441 20L20.4408 21H20.441V20ZM19.492 20.684L20.4408 21.0001L20.4408 21L19.492 20.684ZM18.387 24L17.4383 23.6839L16.9997 25H18.387V24ZM31.613 24V25H33.0007L32.5617 23.6836L31.613 24ZM30.507 20.684L29.5579 20.9988L29.5584 21.0004L30.507 20.684ZM24.1838 2.57774L32.7885 14.7344L34.421 13.5789L25.8163 1.42226L24.1838 2.57774ZM17.2116 14.7344L25.8163 2.57774L24.1838 1.42226L15.5791 13.5789L17.2116 14.7344ZM2.47192 19.5384L16.6926 15.1115L16.0981 13.2018L1.87745 17.6288L2.47192 19.5384ZM11.879 29.926L2.97637 17.9858L1.373 19.1813L10.2757 31.1215L11.879 29.926ZM11.8931 45.4288L12.0773 30.5361L10.0774 30.5114L9.89327 45.404L11.8931 45.4288ZM24.6793 39.692L10.5724 44.4692L11.2139 46.3636L25.3208 41.5863L24.6793 39.692ZM39.4276 44.4692L25.3208 39.692L24.6793 41.5863L38.7861 46.3636L39.4276 44.4692ZM37.9228 30.5361L38.107 45.4288L40.1068 45.404L39.9227 30.5114L37.9228 30.5361ZM47.0237 17.9858L38.121 29.926L39.7244 31.1215L48.6271 19.1813L47.0237 17.9858ZM33.3075 15.1115L47.5282 19.5384L48.1226 17.6288L33.902 13.2018L33.3075 15.1115ZM34.7207 23.8398L33.3527 19.7348L31.4553 20.3672L32.8233 24.4722L34.7207 23.8398ZM36 26C36 24.7521 35.2354 23.6869 34.1599 23.2343L33.3842 25.0777C33.7487 25.2311 34 25.5899 34 26H36ZM36 31V26H34V31H36ZM35.5779 32.5257C35.8524 32.0652 35.9982 31.5395 36 31.0034L34 30.9966C33.9994 31.1744 33.9511 31.3488 33.86 31.5016L35.5779 32.5257ZM34.4397 33.621C34.9104 33.3644 35.3035 32.9861 35.5779 32.5257L33.86 31.5016C33.7689 31.6544 33.6385 31.7799 33.4824 31.865L34.4397 33.621ZM34.9418 32.5444C34.9403 32.5388 34.9394 32.5355 34.9386 32.5326C34.9379 32.53 34.9377 32.529 34.9377 32.5291C34.9377 32.5293 34.9382 32.531 34.9388 32.5339C34.9395 32.5368 34.9405 32.5412 34.9416 32.5469L32.9805 32.9391C32.9926 32.9999 33.0077 33.054 33.012 33.0698L34.9418 32.5444ZM35 32.938C35 32.7375 34.9484 32.5687 34.9418 32.5444L33.0121 33.0698C33.0136 33.0755 33.0145 33.0787 33.0152 33.0816C33.016 33.0842 33.0162 33.0852 33.0162 33.0851C33.0161 33.085 33.0157 33.0832 33.015 33.0803C33.0144 33.0774 33.0134 33.073 33.0122 33.0673C33.0078 33.045 33 32.9989 33 32.938H35ZM35 35V32.938H33V35H35ZM34.4143 36.4142C34.7893 36.0391 35 35.5304 35 35H33L33 35L34.4143 36.4142ZM33 37C33.5305 37 34.0392 36.7893 34.4143 36.4142L33 35L33 35V37ZM32 37H33V35H32V37ZM30.5858 36.4142C30.9609 36.7893 31.4696 37 32 37V35L32 35L30.5858 36.4142ZM30 35C30 35.5304 30.2108 36.0391 30.5858 36.4142L32 35L32 35H30ZM30 33V35H32V33H30ZM19 34H31V32H19V34ZM20 35V33H18V35H20ZM19.4143 36.4142C19.7893 36.0391 20 35.5304 20 35H18L18 35L19.4143 36.4142ZM18 37C18.5305 37 19.0392 36.7893 19.4143 36.4142L18 35H18V37ZM17 37H18V35H17V37ZM15.5858 36.4142C15.9609 36.7893 16.4696 37 17 37V35L17 35L15.5858 36.4142ZM15 35C15 35.5304 15.2108 36.0391 15.5858 36.4142L17 35L17 35H15ZM15 32.938V35H17V32.938H15ZM15.0579 32.5461C15.0513 32.5705 15 32.7381 15 32.938H17C17 32.9986 16.9924 33.0447 16.9878 33.0679C16.9855 33.0791 16.9837 33.0861 16.9837 33.0863C16.9836 33.0865 16.9839 33.0857 16.9846 33.0831C16.9853 33.0802 16.9862 33.0771 16.9877 33.0715L15.0579 32.5461ZM15.0579 32.5497C15.0601 32.5383 15.0619 32.5312 15.062 32.5309C15.0621 32.5307 15.0619 32.5315 15.0612 32.5342C15.0604 32.537 15.0595 32.5403 15.058 32.546L16.9877 33.0715C16.9921 33.0552 17.0078 32.9994 17.0202 32.9363L15.0579 32.5497ZM14 31C14 32.1412 14.6425 33.1129 15.5547 33.6179L16.5234 31.8681C16.2036 31.6911 16 31.3648 16 31H14ZM14 26V31H16V26H14ZM14.5036 24.3385C14.1761 24.8302 14.0009 25.4077 14 25.9985L16 26.0015C16.0003 25.8042 16.0588 25.6113 16.1682 25.4471L14.5036 24.3385ZM15.8411 23.2339C15.2963 23.4625 14.831 23.8467 14.5036 24.3385L16.1682 25.447C16.2776 25.2828 16.433 25.1545 16.615 25.0781L15.8411 23.2339ZM16.6473 19.7348L15.2793 23.8398L17.1767 24.4722L18.5447 20.3672L16.6473 19.7348ZM18.1021 17.7543C17.4209 18.2455 16.9117 18.9388 16.647 19.7358L18.5451 20.3662C18.6773 19.9682 18.9315 19.6219 19.2717 19.3767L18.1021 17.7543ZM20.4419 17C19.6021 16.9993 18.7834 17.2632 18.1021 17.7543L19.2717 19.3767C19.6119 19.1314 20.0208 18.9996 20.4401 19L20.4419 17ZM23 17H20.441V19H23V17ZM22 16V18H24V16H22ZM27 15H23V17H27V15ZM28 18V16H26V18H28ZM29.559 17H27V19H29.559V17ZM31.8979 17.7543C31.2167 17.2632 30.398 16.9993 29.5581 17L29.5599 19C29.9793 18.9996 30.3882 19.1314 30.7284 19.3767L31.8979 17.7543ZM33.3531 19.7358C33.0884 18.9388 32.5792 18.2455 31.8979 17.7543L30.7284 19.3767C31.0686 19.6219 31.3228 19.9682 31.455 20.3662L33.3531 19.7358ZM18 31V26H16V31H18ZM33.002 30H17V32H33.002V30ZM32 26.0004L32.002 31.0004L34.002 30.9996L34 25.9996L32 26.0004ZM17 27H33V25H17V27ZM20.441 21H29.558V19H20.441V21ZM20.4408 21L20.4408 21L20.4413 19C20.0214 18.9999 19.612 19.132 19.2714 19.3775L20.4408 21ZM20.4408 21V21L19.2714 19.3775C18.9307 19.6231 18.676 19.9696 18.5433 20.368L20.4408 21ZM19.3358 24.3161L20.4408 21.0001L18.5433 20.3679L17.4383 23.6839L19.3358 24.3161ZM31.613 23H18.387V25H31.613V23ZM29.5584 21.0004L30.6644 24.3164L32.5617 23.6836L31.4557 20.3676L29.5584 21.0004ZM29.558 21C29.5595 21 29.5597 21.0002 29.5594 21.0001C29.5592 21 29.5591 21 29.559 20.9999C29.5589 20.9998 29.5585 20.9995 29.5581 20.999C29.5576 20.9983 29.5576 20.9979 29.5579 20.9988L31.4562 20.3692C31.1838 19.5479 30.4177 19 29.558 19V21ZM20 28.5C20 28.7761 19.7762 29 19.5 29V31C20.8807 31 22 29.8807 22 28.5H20ZM19.5 28C19.7762 28 20 28.2239 20 28.5H22C22 27.1193 20.8807 26 19.5 26V28ZM19 28.5C19 28.2239 19.2239 28 19.5 28V26C18.1193 26 17 27.1193 17 28.5H19ZM19.5 29C19.2239 29 19 28.7761 19 28.5H17C17 29.8807 18.1193 31 19.5 31V29ZM30.5 31C31.8807 31 33 29.8807 33 28.5H31C31 28.7761 30.7762 29 30.5 29V31ZM28 28.5C28 29.8807 29.1193 31 30.5 31V29C30.2239 29 30 28.7761 30 28.5H28ZM30.5 26C29.1193 26 28 27.1193 28 28.5H30C30 28.2239 30.2239 28 30.5 28V26ZM33 28.5C33 27.1193 31.8807 26 30.5 26V28C30.7762 28 31 28.2239 31 28.5H33Z"
        fill="white" mask="url(#path-1-outside-1)"></path>
</svg>