<svg id="step-svg-4" viewBox="0 0 48 48" xmlns="http://www.w3.org/2000/svg">
    <path fill-rule="evenodd" clip-rule="evenodd"
        d="M31.605 12.157L23 0l-8.605 12.157-14.22 4.427 8.902 11.94-.184 14.892L23 38.64l14.107 4.777-.184-14.892 8.902-11.94-14.22-4.427zm-1.201 5.894l1.368 4.105A2.003 2.003 0 0 1 33 24v5a1.993 1.993 0 0 1-1.039 1.743c.004.022.01.043.016.064a.492.492 0 0 1 .023.131V33a1 1 0 0 1-1 1h-1a1 1 0 0 1-1-1v-2H17v2a1 1 0 0 1-1 1h-1a1 1 0 0 1-1-1v-2.062c0-.046.011-.087.023-.13a.943.943 0 0 0 .016-.065A1.993 1.993 0 0 1 13 29v-5a2.003 2.003 0 0 1 1.228-1.844l1.368-4.105A2.996 2.996 0 0 1 18.441 16H21v-2h4v2h2.559a2.995 2.995 0 0 1 2.845 2.051zM15 24v5h16.002L31 24H15zm12.558-6h-9.117a1 1 0 0 0-.949.684L16.387 22h13.226l-1.106-3.316a.998.998 0 0 0-.949-.684zM17.5 28a1.5 1.5 0 1 0 0-3 1.5 1.5 0 0 0 0 3zM30 26.5a1.5 1.5 0 1 1-3 0 1.5 1.5 0 0 1 3 0z"
        fill="#FFE923"></path>
</svg>