<svg id="step-svg-3" viewBox="0 0 48 48" xmlns="http://www.w3.org/2000/svg">
    <path fill-rule="evenodd" clip-rule="evenodd"
        d="M31.605 12.157L23 0l-8.605 12.157-14.22 4.427 8.902 11.94-.184 14.892L23 38.64l14.107 4.777-.184-14.892 8.902-11.94-14.22-4.427zm-12.398 1.249a4.8 4.8 0 0 0 3.395 8.194l-2.4 2.4 1.86 9.306L17.085 23.2h-.887C13 23.2 13 25.35 13 28v8h19.2v-8c0-2.65 0-4.8-3.198-4.8h-.884l-4.977 10.106L25 24l-2.4-2.4a4.8 4.8 0 1 0-3.393-8.194z"
        fill="#FFE923"></path>
</svg>