<svg width="46" height="44" viewBox="0 0 46 44" fill="none" xmlns="http://www.w3.org/2000/svg">
<path fill-rule="evenodd" clip-rule="evenodd" d="M31.6047 12.1567L23 0L14.3953 12.1567L0.174683 16.5836L9.07735 28.5238L8.89319 43.4164L23 38.6392L37.1069 43.4164L36.9227 28.5238L45.8254 16.5836L31.6047 12.1567ZM20.6932 14.3877C20.6932 13.0874 21.697 12 23.0004 12C24.3037 12 25.3426 13.1426 25.3426 14.395C25.3426 15.7439 25.3163 16.7358 25.3163 16.7358H27.6336C27.6773 16.7358 27.7195 16.7407 27.7611 16.7476H28.4056V18.999H17.5951V16.7476H18.2396C18.2812 16.7407 18.3234 16.7358 18.3671 16.7358H20.6845C20.6845 16.7358 20.6932 15.6401 20.6932 14.3877ZM14.5043 36V14.2837H19.8876V15.8569H16.0614V34.4238H29.9408V15.8569H26.1132V14.2837H31.4964V36H14.5043ZM23.7723 15.082C23.7723 14.6566 23.4274 14.313 23.0004 14.313C22.5734 14.313 22.2284 14.6566 22.2284 15.082C22.2284 15.5082 22.5734 15.8525 23.0004 15.8525C23.4274 15.8525 23.7723 15.5082 23.7723 15.082ZM17.5951 21.2959V20.5254H18.3671V21.2959H17.5951ZM19.9125 21.3105V20.54H28.4056V21.3105H19.9125ZM17.5951 24.2021V23.4316H18.3671V24.2021H17.5951ZM19.9125 24.2183V23.4463H28.4056V24.2183H19.9125ZM17.5951 27.1084V26.3379H18.3671V27.1084H17.5951ZM19.9125 27.1245V26.354H28.4056V27.1245H19.9125ZM17.5951 30.0161V29.2456H18.3671V30.0161H17.5951ZM19.9125 30.0322V29.2617H28.4056V30.0322H19.9125ZM17.5951 32.9224V32.1519H18.3671V32.9224H17.5951ZM19.9125 32.9385V32.168H28.4056V32.9385H19.9125Z" fill="#FFE923"/>
</svg>
