<svg width="159" height="159" viewBox="0 0 159 159" fill="none" xmlns="http://www.w3.org/2000/svg">
<path d="M79.5 0C63.7764 -1.87502e-07 48.4059 4.66259 35.3322 13.3982C22.2585 22.1337 12.0687 34.5499 6.05158 49.0767C0.0344105 63.6034 -1.53995 79.5882 1.52757 95.0097C4.5951 110.431 12.1667 124.597 23.285 135.715C34.4033 146.833 48.5688 154.405 63.9903 157.472C79.4118 160.54 95.3966 158.966 109.923 152.948C124.45 146.931 136.866 136.742 145.602 123.668C154.337 110.594 159 95.2236 159 79.5H156.506C156.506 94.7303 151.989 109.619 143.528 122.282C135.066 134.946 123.04 144.816 108.969 150.644C94.8979 156.472 79.4146 157.997 64.4769 155.026C49.5393 152.055 35.8182 144.721 25.0487 133.951C14.2793 123.182 6.94521 109.461 3.97393 94.5231C1.00265 79.5854 2.52762 64.1021 8.356 50.0312C14.1844 35.9602 24.0544 23.9336 36.7179 15.4721C49.3814 7.01059 64.2697 2.49429 79.5 2.49429V0Z" fill="#C4C4C4"/>
</svg>
