<svg width="180" height="52" viewBox="0 0 180 52" fill="none" xmlns="http://www.w3.org/2000/svg">
<path fill-rule="evenodd" clip-rule="evenodd" d="M33.4219 5.56671L44.9489 17.0919C48.7275 20.8723 50.8236 25.9723 50.8236 31.3148C50.8236 36.6554 48.7275 41.7573 44.9489 45.5358C41.1686 49.3144 36.0685 51.4105 30.726 51.4105C27.6274 51.4105 24.5269 51.3978 21.4264 51.4215L19.4141 51.4379C18.8618 51.4415 18.3842 51.2483 17.9923 50.8583C17.5986 50.4682 17.4018 49.9924 17.4018 49.4402V47.4278C17.4018 46.9084 17.4018 46.3907 17.4018 45.873L5.87471 34.346C2.09615 30.5656 0 25.4656 0 20.1231C0 14.7825 2.09615 9.68064 5.87471 5.9021C9.65508 2.12355 14.7551 0.0273851 20.0976 0.0273851C23.1963 0.0273851 26.2968 0.0401448 29.3973 0.0164491L31.4096 5.06321e-05C31.9619 -0.00359486 32.4394 0.189615 32.8313 0.579682C33.225 0.969749 33.4219 1.44548 33.4219 1.99777V4.01009C33.4219 4.52957 33.4219 5.04722 33.4219 5.56671ZM31.426 6.39423L43.5363 18.5045C46.9412 21.9094 48.8277 26.5027 48.8277 31.3148C48.8277 36.1268 46.9412 40.7183 43.5363 44.1232C40.1314 47.5281 35.5399 49.4146 30.726 49.4146C27.6219 49.4146 24.5159 49.4001 21.4118 49.4238L19.3995 49.4402V47.4278C19.3995 46.6331 19.3995 45.8402 19.3995 45.0455L7.28734 32.9334C3.88245 29.5285 1.99773 24.9352 1.99773 20.1231C1.99773 15.3111 3.88245 10.7196 7.28734 7.31472C10.6922 3.90984 15.2856 2.02329 20.0976 2.02329C23.2017 2.02329 26.3077 2.03788 29.4118 2.01418L31.426 1.99777V4.01009C31.426 4.8048 31.426 5.59951 31.426 6.39423Z" fill="white"/>
<path fill-rule="evenodd" clip-rule="evenodd" d="M36.4401 25.6007C38.0077 27.1682 38.7933 29.2407 38.7933 31.315C38.7933 33.3874 38.0077 35.4599 36.4401 37.0275C34.8725 38.5951 32.8001 39.3806 30.7258 39.3806C30.292 39.3806 29.8582 39.346 29.428 39.2767C29.428 27.5219 29.428 15.767 29.428 4.01025C26.3111 4.03395 23.2088 4.02119 20.0974 4.02119C15.9688 4.02119 11.8367 5.59058 8.69973 8.72752C5.56278 11.8645 3.99341 15.9948 3.99341 20.1233C3.99341 24.2518 5.56278 28.384 8.69973 31.521L19.3883 42.2095V30.8429L14.3831 25.8376C12.8155 24.2701 12.0317 22.1976 12.0317 20.1233C12.0317 18.0509 12.8155 15.9784 14.3831 14.4108C15.9506 12.8415 18.0231 12.0577 20.0955 12.0577C20.5312 12.0577 20.965 12.0923 21.3952 12.1616C21.3952 23.9165 21.3952 35.6714 21.3952 47.4281C24.5121 47.4044 27.6144 47.4171 30.7258 47.4171C34.8561 47.4171 38.9865 45.8477 42.1234 42.7108C45.2604 39.5739 46.8298 35.4417 46.8298 31.315C46.8298 27.1865 45.2604 23.0543 42.1234 19.9174L31.4349 9.22878V20.5972L36.4401 25.6007Z" fill="white"/>
<path d="M74.1951 4.36364L76.7525 4.36182V5.62133H75.6461L75.5895 12.484H76.654V13.7435H73.1252V12.484H74.1897V6.76966L69.3995 13.7435H67.8319V5.62133H66.7675V4.36182H70.464V5.62133H69.3995V11.2463L74.1951 4.36364ZM86.8031 13.7435H83.4419V12.484H84.4226V10.8599H80.9922L81.0049 12.484H81.9856V13.7435H78.6117V12.484H79.5905V8.03101H78.6117V6.76966H81.9856V8.03101H81.0049V9.59857H84.4226V8.03101H83.4419V6.76966H86.8031V8.03101H85.8224V12.484H86.8031V13.7435ZM95.9715 11.3776C95.7382 12.072 95.2788 12.6681 94.5917 13.1602C93.9063 13.6524 93.19 13.8984 92.4427 13.8984C91.3873 13.8984 90.4868 13.543 89.7395 12.8358C88.9922 12.1267 88.6204 11.2646 88.6204 10.2493C88.6204 9.24496 88.9813 8.38462 89.7049 7.6701C90.4285 6.95923 91.2998 6.60197 92.3169 6.60197C92.6997 6.60197 93.1061 6.69129 93.5345 6.8681C93.9646 7.0449 94.2818 7.25998 94.4878 7.51152V6.76966H95.6634V8.89863H94.4878C93.992 8.24426 93.3194 7.918 92.47 7.918C91.8266 7.918 91.2706 8.14767 90.804 8.60153C90.3374 9.05904 90.1041 9.60769 90.1041 10.2493C90.1041 10.9018 90.3301 11.4523 90.7839 11.9044C91.236 12.3546 91.7992 12.5824 92.47 12.5824C92.8819 12.5824 93.2756 12.4712 93.6548 12.2507C94.0321 12.0283 94.3091 11.7367 94.4878 11.3776H95.9715ZM97.5354 6.76966H104.342V9.08091H103.139V8.03101H101.64V12.484H102.634V13.7435H99.2725V12.484H100.239V8.03101H98.7402V9.08091H97.5354V6.76966ZM114.281 13.7435H110.92V12.484H111.9V8.97519L108.268 13.7399L106.088 13.7435V12.484H107.068V8.03101H106.088V6.76966H109.449V8.03101H108.468V11.6437L112.167 6.76966H114.281V8.03101H113.3V12.484H114.281V13.7435ZM115.985 6.76966H122.791V9.08091H121.587V8.03101H120.088V12.484H121.083V13.7435H117.722V12.484H118.688V8.03101H117.19V9.08091H115.985V6.76966ZM132.086 8.03101H131.119L128.192 14.9757H129.158V16.237H125.728V14.9757H126.849L127.352 13.7435L125.154 8.03101H124.188V6.76966H127.436V8.03101H126.61L128.061 12.0411L129.63 8.02736L128.808 8.03101V6.76966H132.086V8.03101ZM133.482 6.76966H140.288V9.08091H139.083V8.03101H137.585V12.484H138.58V13.7435H135.219V12.484H136.185V8.03101H134.687V9.08091H133.482V6.76966ZM76.9201 24.4649C76.9201 25.2432 76.6504 25.9122 76.109 26.4736C75.5677 27.035 74.9133 27.3157 74.1478 27.3157H72.6349V28.1286H73.6994V29.164H70.0174V28.1286H71.0801V27.3157H69.569C68.8035 27.3157 68.1491 27.0405 67.6078 26.4863C67.0664 25.9359 66.7948 25.2615 66.7948 24.4649C66.7948 23.6975 67.0682 23.0341 67.615 22.4799C68.1619 21.9222 68.8126 21.6433 69.569 21.6433H71.0801V20.8176H70.0174V19.7804H73.6994V20.8176H72.6349V21.6433H74.1478C74.9133 21.6433 75.5677 21.9185 76.109 22.4727C76.6504 23.0231 76.9201 23.6884 76.9201 24.4649ZM75.4638 24.4649C75.4638 24.0147 75.2979 23.641 74.9662 23.3476C74.6363 23.0505 74.2316 22.9046 73.7559 22.9046H72.6349V26.0544H73.7559C74.2316 26.0544 74.6363 25.9085 74.9662 25.6114C75.2979 25.318 75.4638 24.9352 75.4638 24.4649ZM71.0801 26.0544V22.9046H69.9609C69.4852 22.9046 69.0805 23.0505 68.7488 23.3476C68.417 23.641 68.2512 24.0147 68.2512 24.4649C68.2512 24.9352 68.417 25.318 68.7488 25.6114C69.0805 25.9085 69.4852 26.0544 69.9609 26.0544H71.0801ZM86.9708 29.164H83.6096V27.9026H84.5903V24.3956L80.9594 29.1585L78.7794 29.164V27.9026H79.76V23.4496H78.7794V22.1901H82.1405V23.4496H81.1599V27.0623L84.8564 22.1901H86.9708V23.4496H85.992V27.9026H86.9708V29.164ZM97.0633 29.164H93.704V27.9026H94.6828V26.2786H91.2524L91.267 27.9026H92.2458V29.164H88.8719V27.9026H89.8525V23.4496H88.8719V22.1901H92.2458V23.4496H91.267V25.019H94.6828V23.4496H93.704V22.1901H97.0633V23.4496H96.0845V27.9026H97.0633V29.164ZM104.93 22.1901H107.311V23.4496H106.33V27.9026H107.311V29.164H104.93V28.2125C104.753 28.5242 104.445 28.7885 104.006 28.9999C103.567 29.2132 103.115 29.3171 102.648 29.3171C101.611 29.3171 100.725 28.9635 99.987 28.2562C99.2488 27.5472 98.8806 26.685 98.8806 25.6698C98.8806 24.6727 99.2488 23.816 99.987 23.0979C100.725 22.3815 101.611 22.0224 102.648 22.0224C103.106 22.0224 103.558 22.1336 104.006 22.3578C104.455 22.582 104.763 22.8427 104.93 23.1416V22.1901ZM104.93 25.6698C104.93 25.019 104.708 24.4686 104.265 24.0147C103.822 23.5645 103.283 23.3385 102.648 23.3385C102.023 23.3385 101.485 23.5663 101.037 24.022C100.589 24.4795 100.364 25.0281 100.364 25.6698C100.364 26.3205 100.587 26.8709 101.03 27.3248C101.474 27.775 102.012 28.0011 102.648 28.0011C103.273 28.0011 103.809 27.7732 104.258 27.3175C104.706 26.86 104.93 26.3114 104.93 25.6698ZM117.292 29.164H113.931V27.9026H114.912V26.2786H111.479L111.494 27.9026H112.475V29.164H109.099V27.9026H110.08V23.4496H109.099V22.1901H112.475V23.4496H111.494V25.019H114.912V23.4496H113.931V22.1901H117.292V23.4496H116.311V27.9026H117.292V29.164ZM126.461 26.798C126.227 27.4925 125.766 28.0885 125.081 28.5807C124.395 29.0728 123.677 29.3171 122.932 29.3171C121.876 29.3171 120.976 28.9635 120.229 28.2562C119.481 27.5472 119.108 26.685 119.108 25.6698C119.108 24.6636 119.47 23.8051 120.194 23.0906C120.918 22.3797 121.787 22.0224 122.804 22.0224C123.189 22.0224 123.593 22.1099 124.024 22.2886C124.454 22.4654 124.771 22.6804 124.975 22.932V22.1901H126.152V24.3191H124.975C124.481 23.6647 123.808 23.3385 122.959 23.3385C122.316 23.3385 121.76 23.5663 121.293 24.022C120.826 24.4795 120.593 25.0281 120.593 25.6698C120.593 26.3205 120.819 26.8709 121.271 27.3248C121.725 27.775 122.286 28.0011 122.959 28.0011C123.369 28.0011 123.765 27.8917 124.142 27.6693C124.521 27.4488 124.798 27.1571 124.975 26.798H126.461ZM135.908 25.6698C135.908 26.6759 135.532 27.5344 134.781 28.2489C134.03 28.9616 133.123 29.3171 132.058 29.3171C130.994 29.3171 130.088 28.9635 129.34 28.2562C128.593 27.5472 128.22 26.685 128.22 25.6698C128.22 24.6636 128.597 23.8051 129.348 23.0906C130.099 22.3797 131.003 22.0224 132.058 22.0224C133.123 22.0224 134.03 22.3797 134.781 23.0906C135.532 23.8051 135.908 24.6636 135.908 25.6698ZM134.424 25.6698C134.424 25.019 134.193 24.4686 133.731 24.0147C133.269 23.5645 132.711 23.3385 132.058 23.3385C131.413 23.3385 130.861 23.5645 130.398 24.0147C129.937 24.4686 129.705 25.019 129.705 25.6698C129.705 26.3114 129.933 26.86 130.39 27.3175C130.848 27.7732 131.404 28.0011 132.058 28.0011C132.702 28.0011 133.258 27.7732 133.724 27.3175C134.191 26.86 134.424 26.3114 134.424 25.6698ZM137.752 22.1901H142.92C143.461 22.1901 143.919 22.3578 144.292 22.6932C144.666 23.0304 144.854 23.446 144.854 23.94C144.854 24.248 144.763 24.536 144.58 24.8021C144.398 25.0682 144.163 25.2797 143.873 25.4383C144.256 25.5039 144.579 25.7171 144.839 26.0762C145.1 26.4353 145.231 26.8163 145.231 27.2173C145.231 27.7495 145.022 28.207 144.601 28.5898C144.181 28.9726 143.664 29.164 143.048 29.164H137.752V27.9026H138.719V23.4496H137.752V22.1901ZM140.12 23.4496V25.0318H142.417C142.687 25.0318 142.914 24.9552 143.095 24.8021C143.277 24.6472 143.368 24.4449 143.368 24.1915C143.368 23.96 143.281 23.7777 143.102 23.6465C142.925 23.5153 142.692 23.4496 142.402 23.4496H140.12ZM140.12 26.2931V27.9026H142.599C142.944 27.9026 143.223 27.8334 143.432 27.693C143.642 27.5545 143.747 27.3394 143.747 27.0496C143.747 26.798 143.64 26.6085 143.425 26.4827C143.21 26.3569 142.935 26.2931 142.599 26.2931H140.12ZM154.777 25.6698C154.777 26.6759 154.401 27.5344 153.65 28.2489C152.899 28.9616 151.992 29.3171 150.927 29.3171C149.863 29.3171 148.957 28.9635 148.21 28.2562C147.462 27.5472 147.089 26.685 147.089 25.6698C147.089 24.6636 147.466 23.8051 148.217 23.0906C148.968 22.3797 149.872 22.0224 150.927 22.0224C151.992 22.0224 152.899 22.3797 153.65 23.0906C154.401 23.8051 154.777 24.6636 154.777 25.6698ZM153.293 25.6698C153.293 25.019 153.062 24.4686 152.601 24.0147C152.138 23.5645 151.58 23.3385 150.927 23.3385C150.282 23.3385 149.73 23.5645 149.267 24.0147C148.806 24.4686 148.574 25.019 148.574 25.6698C148.574 26.3114 148.802 26.86 149.259 27.3175C149.717 27.7732 150.273 28.0011 150.927 28.0011C151.571 28.0011 152.127 27.7732 152.593 27.3175C153.06 26.86 153.293 26.3114 153.293 25.6698ZM162.518 24.4995H161.313V23.4496H158.989V27.9026H159.955V29.164H156.622V27.9026H157.589V23.4496H156.622V22.1901H162.518V24.4995ZM171.657 25.6698C171.657 26.6759 171.282 27.5344 170.531 28.2489C169.78 28.9616 168.872 29.3171 167.808 29.3171C166.743 29.3171 165.837 28.9635 165.09 28.2562C164.343 27.5472 163.971 26.685 163.971 25.6698C163.971 24.6636 164.346 23.8051 165.097 23.0906C165.848 22.3797 166.752 22.0224 167.808 22.0224C168.872 22.0224 169.78 22.3797 170.531 23.0906C171.282 23.8051 171.657 24.6636 171.657 25.6698ZM170.174 25.6698C170.174 25.019 169.942 24.4686 169.481 24.0147C169.018 23.5645 168.46 23.3385 167.808 23.3385C167.162 23.3385 166.61 23.5645 166.147 24.0147C165.686 24.4686 165.455 25.019 165.455 25.6698C165.455 26.3114 165.682 26.86 166.14 27.3175C166.597 27.7732 167.153 28.0011 167.808 28.0011C168.451 28.0011 169.007 27.7732 169.474 27.3175C169.94 26.86 170.174 26.3114 170.174 25.6698ZM76.5993 39.858C76.5993 41.2178 76.12 42.3716 75.163 43.3194C74.2061 44.2636 73.0468 44.7375 71.6834 44.7375C70.3291 44.7375 69.1717 44.2618 68.2093 43.3121C67.2487 42.3588 66.7675 41.2087 66.7675 39.858C66.7675 38.5147 67.2468 37.3755 68.2038 36.4386C69.1607 35.5017 70.32 35.0332 71.6834 35.0332C73.0359 35.0332 74.1951 35.5053 75.1557 36.4458C76.1181 37.3882 76.5993 38.5256 76.5993 39.858ZM74.9735 39.858C74.9735 38.9266 74.6545 38.1373 74.0147 37.4884C73.3749 36.8414 72.5984 36.5169 71.6834 36.5169C70.7775 36.5169 70.0028 36.845 69.3576 37.4958C68.7142 38.1483 68.3915 38.9357 68.3915 39.858C68.3915 40.8077 68.7123 41.6097 69.3521 42.2677C69.9901 42.9239 70.7684 43.2538 71.6834 43.2538C72.5893 43.2538 73.364 42.9221 74.0074 42.2622C74.6527 41.5988 74.9735 40.7986 74.9735 39.858ZM84.4918 42.6031C84.4918 43.1882 84.2221 43.6913 83.6807 44.1105C83.1394 44.5279 82.485 44.7375 81.7194 44.7375C81.3549 44.7375 80.9666 44.6555 80.5511 44.4915C80.1355 44.3256 79.811 44.1215 79.5777 43.8845V44.5844H78.4002V42.5247H79.7308C79.7964 42.82 80.0061 43.0588 80.3615 43.2411C80.6695 43.3978 81.0104 43.478 81.3841 43.478C81.8416 43.478 82.2262 43.3905 82.5397 43.221C82.8514 43.0478 83.0081 42.8419 83.0081 42.6031C83.0081 42.2878 82.8933 42.038 82.6654 41.8503C82.4358 41.6662 82.1496 41.5732 81.8033 41.5732H80.3615V40.3119H81.7814C82.0694 40.3119 82.2991 40.2463 82.4704 40.1169C82.6417 39.9856 82.7274 39.7888 82.7274 39.5281C82.7274 38.9776 82.3009 38.7024 81.446 38.7024C81.1471 38.7024 80.8482 38.7808 80.5474 38.9394C80.2448 39.0998 80.0152 39.3003 79.8566 39.5427H78.6536V37.6106H79.8566V38.3233C80.0261 38.0152 80.3196 37.7819 80.7388 37.6234C81.0669 37.5031 81.3932 37.4411 81.7194 37.4411C82.4285 37.4411 83.0227 37.6288 83.4984 38.0025C83.9742 38.3761 84.213 38.8373 84.213 39.3878C84.213 39.6594 84.1145 39.9437 83.9177 40.2426C83.7226 40.5416 83.4893 40.7658 83.2177 40.9152C83.5823 41.0173 83.8867 41.2251 84.1291 41.5423C84.3715 41.8594 84.4918 42.213 84.4918 42.6031ZM93.4506 46.4746H92.2458V44.5844H87.3863V46.4746H86.1833V43.3231H86.7994L88.7042 38.8701H87.7655V37.6106H90.496L92.8345 43.3231H93.4506V46.4746ZM91.4274 43.3231L89.8051 39.2511L88.1847 43.3231H91.4274ZM102.885 41.0902C102.885 42.0964 102.51 42.9549 101.759 43.6694C101.006 44.3803 100.098 44.7375 99.0337 44.7375C97.9692 44.7375 97.0651 44.3839 96.3178 43.6767C95.5705 42.9658 95.1968 42.1055 95.1968 41.0902C95.1968 40.084 95.5723 39.2256 96.3251 38.511C97.0761 37.7983 97.9802 37.4411 99.0337 37.4411C100.098 37.4411 101.006 37.7983 101.759 38.511C102.51 39.2256 102.885 40.084 102.885 41.0902ZM101.401 41.0902C101.401 40.4395 101.17 39.8872 100.707 39.4352C100.246 38.9849 99.6881 38.7589 99.0337 38.7589C98.3903 38.7589 97.8361 38.9849 97.375 39.4352C96.912 39.8872 96.6824 40.4395 96.6824 41.0902C96.6824 41.7318 96.9102 42.2805 97.3677 42.738C97.8252 43.1937 98.3812 43.4215 99.0337 43.4215C99.679 43.4215 100.233 43.1937 100.701 42.738C101.168 42.2805 101.401 41.7318 101.401 41.0902ZM104.661 37.6106H107.041V38.5621C107.209 38.254 107.515 37.9897 107.958 37.771C108.401 37.5523 108.856 37.4411 109.323 37.4411C110.36 37.4411 111.246 37.7965 111.984 38.5037C112.721 39.2128 113.091 40.0749 113.091 41.0902C113.091 42.0872 112.721 42.9421 111.984 43.6621C111.246 44.3784 110.36 44.7375 109.323 44.7375C108.866 44.7375 108.415 44.63 107.972 44.4131C107.528 44.1962 107.218 43.9355 107.041 43.6311V45.8166H108.02V47.0761H104.661V45.8166H105.639V38.8701H104.661V37.6106ZM111.605 41.0902C111.605 40.4395 111.385 39.8872 110.94 39.4352C110.497 38.9849 109.957 38.7589 109.323 38.7589C108.698 38.7589 108.16 38.9868 107.712 39.4425C107.265 39.9 107.041 40.4486 107.041 41.0902C107.041 41.7409 107.262 42.2914 107.706 42.7453C108.149 43.1955 108.689 43.4215 109.323 43.4215C109.948 43.4215 110.486 43.1937 110.934 42.738C111.381 42.2805 111.605 41.7318 111.605 41.0902ZM122.567 41.0902C122.567 42.0964 122.192 42.9549 121.439 43.6694C120.688 44.3803 119.78 44.7375 118.716 44.7375C117.651 44.7375 116.745 44.3839 115.998 43.6767C115.252 42.9658 114.879 42.1055 114.879 41.0902C114.879 40.084 115.254 39.2256 116.005 38.511C116.758 37.7983 117.66 37.4411 118.716 37.4411C119.78 37.4411 120.688 37.7983 121.439 38.511C122.192 39.2256 122.567 40.084 122.567 41.0902ZM121.082 41.0902C121.082 40.4395 120.852 39.8872 120.389 39.4352C119.928 38.9849 119.368 38.7589 118.716 38.7589C118.072 38.7589 117.518 38.9849 117.057 39.4352C116.594 39.8872 116.363 40.4395 116.363 41.0902C116.363 41.7318 116.592 42.2805 117.05 42.738C117.507 43.1937 118.061 43.4215 118.716 43.4215C119.359 43.4215 119.915 43.1937 120.382 42.738C120.848 42.2805 121.082 41.7318 121.082 41.0902ZM124.412 37.6106H129.579C130.121 37.6106 130.578 37.7783 130.95 38.1137C131.324 38.4509 131.511 38.8646 131.511 39.3604C131.511 39.6685 131.42 39.9565 131.238 40.2208C131.056 40.4869 130.821 40.7002 130.531 40.8587C130.914 40.9244 131.236 41.1358 131.497 41.4967C131.759 41.8558 131.889 42.2367 131.889 42.6377C131.889 43.17 131.679 43.6275 131.258 44.0103C130.839 44.393 130.321 44.5844 129.705 44.5844H124.412V43.3231H125.378V38.8701H124.412V37.6106ZM126.778 38.8701V40.4522H129.074C129.346 40.4522 129.572 40.3757 129.754 40.2208C129.937 40.0677 130.026 39.8653 130.026 39.612C130.026 39.3786 129.938 39.1964 129.76 39.067C129.583 38.9357 129.35 38.8701 129.06 38.8701H126.778ZM126.778 41.7136V43.3231H129.257C129.601 43.3231 129.88 43.2538 130.09 43.1135C130.299 42.9731 130.405 42.758 130.405 42.47C130.405 42.2167 130.297 42.0271 130.082 41.9013C129.867 41.7756 129.592 41.7136 129.257 41.7136H126.778ZM141.436 44.5844H138.201V43.3231L139.034 43.3212L137.461 39.2802L135.888 43.3231H136.717V44.5844H133.482V43.3231H134.448L136.296 38.8701H135.47V37.6106H138.159L140.47 43.3231H141.436V44.5844ZM146.795 43.4215C147.151 43.4215 147.475 43.3559 147.768 43.2228C148.062 43.0898 148.326 42.8947 148.56 42.6377H150.282C149.965 43.2684 149.498 43.777 148.882 44.1616C148.266 44.5462 147.57 44.7375 146.795 44.7375C145.731 44.7375 144.825 44.3839 144.077 43.6767C143.332 42.9658 142.958 42.1055 142.958 41.0902C142.958 40.084 143.334 39.2256 144.085 38.511C144.837 37.7983 145.74 37.4411 146.795 37.4411C147.86 37.4411 148.767 37.7983 149.518 38.5128C150.271 39.2274 150.647 40.0877 150.647 41.0975C150.647 41.2743 150.637 41.4074 150.617 41.4967C150.599 41.5842 150.59 41.6516 150.59 41.699H144.526C144.666 42.1985 144.945 42.6122 145.359 42.9366C145.774 43.2611 146.254 43.4215 146.795 43.4215ZM146.795 38.7589C146.263 38.7589 145.789 38.9138 145.373 39.2274C144.958 39.5409 144.681 39.9437 144.54 40.4395H149.064C148.915 39.9528 148.632 39.5518 148.217 39.2347C147.801 38.9175 147.327 38.7589 146.795 38.7589ZM160.626 44.5844H157.267V43.3231H158.246V41.699H154.815L154.83 43.3231H155.809V44.5844H152.435V43.3231H153.415V38.8701H152.435V37.6106H155.809V38.8701H154.83V40.4395H158.246V38.8701H157.267V37.6106H160.626V38.8701H159.647V43.3231H160.626V44.5844ZM170.79 44.5844H167.429V43.3231H168.409V39.8161L164.776 44.5789L162.596 44.5844V43.3231H163.577V38.8701H162.596V37.6106H165.958V38.8701H164.979V42.4828L168.675 37.6106H170.79V38.8701H169.809V43.3231H170.79V44.5844ZM180 44.5844H176.752V43.3231H177.605V42.3151L175.841 42.3424L174.231 44.5844H172.634V43.3231H173.6L174.847 41.6844C174.333 41.6844 173.901 41.4912 173.551 41.103C173.201 40.7166 173.026 40.2518 173.026 39.7104C173.026 39.1216 173.229 38.6258 173.635 38.2194C174.041 37.8129 174.534 37.6106 175.113 37.6106H180V38.8701H179.007V43.3231H180V44.5844ZM177.605 40.928V38.8701H175.631C175.323 38.8701 175.059 38.9667 174.84 39.1563C174.619 39.3477 174.51 39.5792 174.51 39.8507C174.51 40.1588 174.623 40.4158 174.847 40.6199C175.071 40.8259 175.35 40.928 175.687 40.928H177.605Z" fill="white"/>
</svg>
