<svg width="14" height="14" viewBox="0 0 14 14" fill="none" xmlns="http://www.w3.org/2000/svg">
<path d="M13.3652 10.8549L10.3165 8.08293C10.1724 7.95195 9.98298 7.88209 9.78832 7.88811C9.59367 7.89413 9.40897 7.97555 9.27322 8.11519L7.47847 9.96093C7.04647 9.87843 6.17797 9.60769 5.28397 8.71593C4.38997 7.82119 4.11922 6.95044 4.03897 6.52144L5.88322 4.72593C6.02303 4.59028 6.10457 4.40555 6.11059 4.21084C6.11661 4.01613 6.04663 3.82672 5.91547 3.68268L3.14422 0.634685C3.013 0.490203 2.83063 0.402563 2.63583 0.39038C2.44104 0.378196 2.24917 0.442429 2.10097 0.569435L0.473467 1.96519C0.343801 2.09532 0.266407 2.26852 0.255967 2.45193C0.244717 2.63943 0.0302174 7.08093 3.47422 10.5264C6.47872 13.5302 10.2422 13.7499 11.2787 13.7499C11.4302 13.7499 11.5232 13.7454 11.548 13.7439C11.7314 13.7337 11.9045 13.6559 12.034 13.5257L13.429 11.8974C13.5565 11.7497 13.6212 11.558 13.6093 11.3632C13.5974 11.1684 13.5098 10.986 13.3652 10.8549Z" fill="#3F3356"/>
</svg>
